#N canvas 121 95 1037 727 10;
#X obj 73 224 tgl 15 0 empty empty empty 17 7 0 10 -262144 -1 -1 0
1;
#X obj 73 162 delay 5000;
#X msg 73 188 0;
#X msg 124 120 1;
#X text 157 182 activity indicator;
#X obj 97 93 t b b;
#X obj 97 47 inlet;
#X obj 73 264 outlet;
#X connect 0 0 7 0;
#X connect 1 0 2 0;
#X connect 2 0 0 0;
#X connect 3 0 0 0;
#X connect 5 0 1 0;
#X connect 5 1 3 0;
#X connect 6 0 5 0;
