#N canvas 367 30 1676 953 10;
#X obj 863 61 audio_tables_loader;
#X obj 863 36 bng 15 250 50 0 empty empty empty 17 7 0 10 -262144 -1
-1;
#X obj 863 90 bng 15 250 50 0 empty empty empty 17 7 0 10 -262144 -1
-1;
#X obj 863 8 loadbang;
#X msg 56 610 oneshot;
#X obj 136 913 dac~;
#X msg 686 154 disconnect;
#X obj 471 184 netsend -u -b;
#X obj 601 85 loadbang;
#X obj 16 60 netreceive -u -b;
#X obj 16 6 loadbang;
#X obj 16 155 s osc_from_podiums;
#X obj 435 34 r osc_from_podiums;
#X obj 16 83 oscparse;
#X obj 16 107 list trim;
#X obj 16 131 route trigger;
#X obj 57 556 r osc_from_podiums;
#X obj 466 126 list prepend send;
#X obj 466 151 list trim;
#X msg 16 33 listen 13000;
#X obj 56 584 route 1;
#X obj 81 696 gain~;
#X msg 138 669 0;
#X msg 207 608 oneshot;
#X obj 208 554 r osc_from_podiums;
#X obj 207 582 route 1;
#X obj 232 694 gain~;
#X msg 289 667 0;
#X msg 444 603 oneshot;
#X obj 524 906 dac~;
#X obj 445 549 r osc_from_podiums;
#X obj 469 689 gain~;
#X msg 526 662 0;
#X msg 595 601 oneshot;
#X obj 596 547 r osc_from_podiums;
#X obj 620 687 gain~;
#X msg 677 660 0;
#X obj 595 575 route 2;
#X obj 444 577 route 2;
#X obj 512 601 r go;
#X obj 664 599 r go;
#X obj 442 253 print;
#X text 665 88 Animation Machine IP;
#X obj 80 672 elooper~;
#X obj 231 670 elooper~;
#X obj 468 665 elooper~;
#X obj 619 663 elooper~;
#X text 594 23 click to send OSC to animation machine;
#X text 596 39 change to emulate different podiums;
#X msg 125 648 hatL;
#X msg 276 645 hatR;
#X obj 124 608 r go;
#X obj 273 606 r go;
#X obj 863 124 s go;
#X obj 138 452 f;
#X obj 177 453 + 1;
#X obj 139 424 bng 15 250 50 0 empty empty empty 17 7 0 10 -262144
-1 -1;
#X obj 141 350 tgl 15 0 empty empty empty 17 7 0 10 -262144 -1 -1 1
1;
#X obj 67 518 bng 15 250 50 0 empty empty empty 17 7 0 10 -262144 -1
-1;
#X obj 140 504 sel 0;
#X text 221 387 128 bpm;
#X obj 140 389 metro 468.75;
#X msg 29 210 60000;
#X obj 29 250 / 128;
#X text 81 251 bpm calc;
#X obj 29 278 print;
#X obj 139 479 mod 16;
#X text 184 479 4 bar loop;
#X obj 528 382 mod 4;
#X text 571 382 trigger per bar;
#X obj 528 412 f;
#X obj 561 410 + 1;
#X obj 527 442 mod 4;
#X text 572 444 4 bass notes;
#X text 841 411 trigger from OSC for bass;
#X obj 526 463 sel 0 1 2 3;
#X msg 381 518 bass1L;
#X msg 597 519 bass1R;
#X msg 430 517 bass2L;
#X msg 478 518 bass3L;
#X msg 527 517 bass4L;
#X msg 646 518 bass2R;
#X msg 695 519 bass3R;
#X msg 744 518 bass4R;
#X obj 663 203 key;
#X floatatom 673 248 5 0 0 0 - - -, f 5;
#X msg 601 117 connect localhost 12000;
#X obj 468 102 oscformat podium;
#X msg 562 34 1;
#X obj 539 353 send keyOSC;
#X obj 810 222 r keyOSC;
#X obj 470 293 sel 113 119 101 114 116 121;
#X text 641 291 qwerty;
#X msg 468 324 0;
#X msg 499 324 1;
#X msg 531 325 2;
#X msg 566 325 3;
#X msg 599 325 4;
#X msg 634 325 5;
#X text 894 594 after no touches \, clock stops after some amount of
time;
#X text 897 622 new touch to any podium restarts the clock;
#X obj 263 219 spigot;
#X msg 264 180 10;
#X obj 319 196 tgl 15 0 empty empty empty 17 7 0 10 -262144 -1 -1 0
1;
#X text 259 428 make this governed by metro;
#X obj 337 386 delay 3750;
#X text 331 415 2 bars;
#X obj 302 337 t b b;
#X msg 261 464 0;
#X floatatom 324 532 5 0 0 0 - - -, f 5;
#X obj 285 497 line;
#X msg 314 464 -99 5000;
#X msg 381 288 0;
#X msg 261 291 1;
#X connect 0 0 2 0;
#X connect 1 0 0 0;
#X connect 2 0 53 0;
#X connect 3 0 1 0;
#X connect 4 0 43 0;
#X connect 6 0 7 0;
#X connect 8 0 86 0;
#X connect 9 0 13 0;
#X connect 10 0 19 0;
#X connect 12 0 41 0;
#X connect 12 0 87 0;
#X connect 13 0 14 0;
#X connect 14 0 15 0;
#X connect 15 0 11 0;
#X connect 16 0 20 0;
#X connect 17 0 18 0;
#X connect 18 0 7 0;
#X connect 19 0 9 0;
#X connect 20 0 4 0;
#X connect 21 0 5 0;
#X connect 22 0 21 1;
#X connect 23 0 44 0;
#X connect 24 0 25 0;
#X connect 25 0 23 0;
#X connect 26 0 5 1;
#X connect 27 0 26 1;
#X connect 28 0 45 0;
#X connect 30 0 38 0;
#X connect 31 0 29 0;
#X connect 32 0 31 1;
#X connect 33 0 46 0;
#X connect 34 0 37 0;
#X connect 35 0 29 1;
#X connect 36 0 35 1;
#X connect 37 0 33 0;
#X connect 38 0 28 0;
#X connect 39 0 32 0;
#X connect 40 0 36 0;
#X connect 43 0 21 0;
#X connect 44 0 26 0;
#X connect 45 0 31 0;
#X connect 46 0 35 0;
#X connect 49 0 43 2;
#X connect 50 0 44 2;
#X connect 51 0 49 0;
#X connect 51 0 22 0;
#X connect 52 0 50 0;
#X connect 52 0 27 0;
#X connect 54 0 55 0;
#X connect 54 0 66 0;
#X connect 54 0 68 0;
#X connect 55 0 54 1;
#X connect 56 0 54 0;
#X connect 56 0 102 0;
#X connect 57 0 61 0;
#X connect 58 0 4 0;
#X connect 58 0 23 0;
#X connect 59 0 58 0;
#X connect 61 0 56 0;
#X connect 62 0 63 0;
#X connect 63 0 65 0;
#X connect 66 0 59 0;
#X connect 68 0 70 0;
#X connect 70 0 71 0;
#X connect 70 0 72 0;
#X connect 71 0 70 1;
#X connect 72 0 75 0;
#X connect 75 0 76 0;
#X connect 75 0 77 0;
#X connect 75 1 78 0;
#X connect 75 1 81 0;
#X connect 75 2 79 0;
#X connect 75 2 82 0;
#X connect 75 3 80 0;
#X connect 75 3 83 0;
#X connect 76 0 45 2;
#X connect 77 0 46 2;
#X connect 78 0 45 2;
#X connect 79 0 45 2;
#X connect 80 0 45 2;
#X connect 81 0 46 2;
#X connect 82 0 46 2;
#X connect 83 0 46 2;
#X connect 84 0 85 0;
#X connect 84 0 91 0;
#X connect 84 0 107 0;
#X connect 86 0 7 0;
#X connect 87 0 17 0;
#X connect 88 0 87 0;
#X connect 90 0 87 0;
#X connect 91 0 93 0;
#X connect 91 1 94 0;
#X connect 91 2 95 0;
#X connect 91 3 96 0;
#X connect 91 4 97 0;
#X connect 91 5 98 0;
#X connect 93 0 28 0;
#X connect 93 0 89 0;
#X connect 93 0 33 0;
#X connect 94 0 89 0;
#X connect 95 0 89 0;
#X connect 96 0 89 0;
#X connect 97 0 89 0;
#X connect 98 0 89 0;
#X connect 101 0 87 0;
#X connect 102 0 101 0;
#X connect 103 0 101 1;
#X connect 105 0 111 0;
#X connect 105 0 112 0;
#X connect 107 0 105 0;
#X connect 107 0 113 0;
#X connect 107 1 108 0;
#X connect 108 0 110 0;
#X connect 110 0 26 1;
#X connect 110 0 21 1;
#X connect 110 0 109 0;
#X connect 111 0 110 0;
#X connect 112 0 103 0;
#X connect 113 0 103 0;
