#N canvas -2 34 1676 953 10;
#X obj 863 61 audio_tables_loader;
#X obj 863 36 bng 15 250 50 0 empty empty empty 17 7 0 10 -262144 -1
-1;
#X obj 863 90 bng 15 250 50 0 empty empty empty 17 7 0 10 -262144 -1
-1;
#X obj 863 8 loadbang;
#X msg 686 154 disconnect;
#X obj 471 184 netsend -u -b;
#X obj 601 85 loadbang;
#X obj 16 60 netreceive -u -b;
#X obj 16 6 loadbang;
#X obj 16 155 s osc_from_podiums;
#X obj 435 34 r osc_from_podiums;
#X obj 16 83 oscparse;
#X obj 16 107 list trim;
#X obj 16 131 route trigger;
#X obj 466 126 list prepend send;
#X obj 466 151 list trim;
#X msg 16 33 listen 13000;
#X obj 442 253 print;
#X text 665 88 Animation Machine IP;
#X text 594 23 click to send OSC to animation machine;
#X text 596 39 change to emulate different podiums;
#X obj 863 124 s go;
#X obj 147 318 f;
#X obj 184 314 + 1;
#X obj 148 290 bng 15 250 50 0 empty empty empty 17 7 0 10 -262144
-1 -1;
#X obj 150 216 tgl 15 0 empty empty empty 17 7 0 10 -262144 -1 -1 1
1;
#X obj 67 518 bng 15 250 50 0 empty empty empty 17 7 0 10 -262144 -1
-1;
#X obj 117 394 sel 0;
#X text 230 253 128 bpm;
#X obj 151 244 metro 468.75;
#X msg 29 210 60000;
#X obj 29 250 / 128;
#X text 81 251 bpm calc;
#X obj 29 278 print;
#X obj 149 352 mod 16;
#X text 193 345 4 bar loop;
#X obj 528 366 mod 4;
#X obj 663 203 key;
#X floatatom 673 248 5 0 0 0 - - -, f 5;
#X msg 601 117 connect localhost 12000;
#X obj 468 102 oscformat podium;
#X msg 566 37 1;
#X obj 546 328 send keyOSC;
#X obj 810 222 r keyOSC;
#X text 648 278 qwerty;
#X msg 475 299 0;
#X msg 506 299 1;
#X msg 538 300 2;
#X msg 573 300 3;
#X msg 606 300 4;
#X msg 641 300 5;
#X text 981 359 after no touches \, clock stops after some amount of
time;
#X text 984 387 new touch to any podium restarts the clock;
#X obj 486 266 sel 113 119 101 114 116 121;
#X obj 1097 323 send restart;
#X obj 1097 300 bng 15 250 50 0 empty empty empty 17 7 0 10 -262144
-1 -1;
#X obj 1096 223 spigot;
#X obj 1088 156 key;
#X obj 1088 183 sel 113 119 101 114 116 121;
#X msg 1160 290 0;
#X obj 1022 278 delay 5000;
#X msg 1026 310 1;
#X obj 1007 210 loadbang;
#X obj 1103 250 t b b;
#X obj 157 136 r restart;
#X msg 208 283 0;
#X msg 148 195 1;
#X obj 153 169 t b b b;
#X msg 193 198 0;
#N canvas 492 122 1014 833 podium1 0;
#X msg 104 341 oneshot;
#X obj 184 644 dac~;
#X obj 105 287 r osc_from_podiums;
#X obj 104 315 route 1;
#X obj 129 427 gain~;
#X msg 186 400 0;
#X msg 255 339 oneshot;
#X obj 256 285 r osc_from_podiums;
#X obj 255 313 route 1;
#X obj 280 425 gain~;
#X msg 337 398 0;
#X obj 128 403 elooper~;
#X obj 279 401 elooper~;
#X msg 173 379 hatL;
#X msg 324 376 hatR;
#X obj 172 339 r go;
#X obj 321 337 r go;
#X obj 123 180 inlet;
#X text 163 181 trigger in every 4 bars;
#X text 419 191 autogain for rhythm;
#X msg 656 414 oneshot;
#X obj 736 717 dac~;
#X obj 657 360 r osc_from_podiums;
#X obj 681 500 gain~;
#X msg 738 473 0;
#X msg 807 412 oneshot;
#X obj 808 358 r osc_from_podiums;
#X obj 832 498 gain~;
#X msg 889 471 0;
#X obj 807 386 route 2;
#X obj 656 388 route 2;
#X obj 724 412 r go;
#X obj 876 410 r go;
#X obj 680 476 elooper~;
#X obj 831 474 elooper~;
#X obj 738 284 sel 0 1 2 3;
#X msg 593 329 bass1L;
#X msg 809 330 bass1R;
#X msg 642 328 bass2L;
#X msg 690 329 bass3L;
#X msg 739 328 bass4L;
#X msg 858 329 bass2R;
#X msg 907 330 bass3R;
#X msg 956 329 bass4R;
#X obj 746 111 inlet;
#X obj 893 114 inlet;
#X text 787 112 clock inlet;
#X text 931 108 trigger inlet;
#X obj 451 295 delay 3750;
#X obj 451 226 t b b;
#X msg 396 332 0;
#X floatatom 459 400 5 0 0 0 - - -, f 5;
#X obj 420 365 line;
#X msg 449 332 -99 5000;
#X text 464 255 2 bars;
#X msg 518 332 0;
#X connect 0 0 11 0;
#X connect 2 0 3 0;
#X connect 3 0 0 0;
#X connect 4 0 1 0;
#X connect 5 0 4 1;
#X connect 6 0 12 0;
#X connect 7 0 8 0;
#X connect 8 0 6 0;
#X connect 9 0 1 1;
#X connect 10 0 9 1;
#X connect 11 0 4 0;
#X connect 12 0 9 0;
#X connect 13 0 11 2;
#X connect 14 0 12 2;
#X connect 15 0 13 0;
#X connect 15 0 5 0;
#X connect 16 0 14 0;
#X connect 16 0 10 0;
#X connect 17 0 0 0;
#X connect 17 0 6 0;
#X connect 20 0 33 0;
#X connect 22 0 30 0;
#X connect 23 0 21 0;
#X connect 24 0 23 1;
#X connect 25 0 34 0;
#X connect 26 0 29 0;
#X connect 27 0 21 1;
#X connect 28 0 27 1;
#X connect 29 0 25 0;
#X connect 30 0 20 0;
#X connect 31 0 24 0;
#X connect 32 0 28 0;
#X connect 33 0 23 0;
#X connect 34 0 27 0;
#X connect 35 0 36 0;
#X connect 35 0 37 0;
#X connect 35 1 38 0;
#X connect 35 1 41 0;
#X connect 35 2 39 0;
#X connect 35 2 42 0;
#X connect 35 3 40 0;
#X connect 35 3 43 0;
#X connect 36 0 33 2;
#X connect 37 0 34 2;
#X connect 38 0 33 2;
#X connect 39 0 33 2;
#X connect 40 0 33 2;
#X connect 41 0 34 2;
#X connect 42 0 34 2;
#X connect 43 0 34 2;
#X connect 44 0 35 0;
#X connect 45 0 20 0;
#X connect 45 0 25 0;
#X connect 45 0 49 0;
#X connect 48 0 53 0;
#X connect 48 0 55 0;
#X connect 49 0 48 0;
#X connect 49 1 50 0;
#X connect 50 0 52 0;
#X connect 52 0 51 0;
#X connect 52 0 9 1;
#X connect 52 0 4 1;
#X connect 53 0 52 0;
#X restore 264 644 pd podium1;
#X floatatom 171 385 5 0 0 0 - - -, f 5;
#N canvas 293 144 1014 833 podium2 0;
#X msg 104 341 oneshot;
#X obj 184 644 dac~;
#X obj 105 287 r osc_from_podiums;
#X obj 104 315 route 1;
#X obj 129 427 gain~;
#X msg 186 400 0;
#X msg 255 339 oneshot;
#X obj 256 285 r osc_from_podiums;
#X obj 255 313 route 1;
#X obj 280 425 gain~;
#X msg 337 398 0;
#X obj 128 403 elooper~;
#X obj 279 401 elooper~;
#X obj 172 339 r go;
#X obj 321 337 r go;
#X obj 123 180 inlet;
#X text 163 181 trigger in every 4 bars;
#X text 419 191 autogain for rhythm;
#X msg 656 414 oneshot;
#X obj 736 717 dac~;
#X obj 657 360 r osc_from_podiums;
#X obj 681 500 gain~;
#X msg 738 473 0;
#X msg 807 412 oneshot;
#X obj 808 358 r osc_from_podiums;
#X obj 832 498 gain~;
#X msg 889 471 0;
#X obj 807 386 route 2;
#X obj 656 388 route 2;
#X obj 724 412 r go;
#X obj 876 410 r go;
#X obj 680 476 elooper~;
#X obj 831 474 elooper~;
#X obj 738 284 sel 0 1 2 3;
#X obj 746 111 inlet;
#X obj 893 114 inlet;
#X text 931 108 trigger inlet;
#X msg 324 376 kickR;
#X msg 173 379 kickL;
#X msg 576 329 chord1L;
#X msg 635 328 chord2L;
#X msg 690 329 chord3L;
#X msg 746 328 chord4L;
#X msg 809 330 chord1R;
#X msg 858 329 chord2R;
#X msg 907 330 chord3R;
#X msg 956 329 chord4R;
#X text 787 112 select inlet;
#X text 419 191 autogain for rhythm;
#X obj 451 295 delay 3750;
#X obj 451 226 t b b;
#X msg 396 332 0;
#X floatatom 459 400 5 0 0 0 - - -, f 5;
#X obj 420 365 line;
#X msg 449 332 -99 5000;
#X text 464 255 2 bars;
#X msg 518 332 0;
#X connect 0 0 11 0;
#X connect 2 0 3 0;
#X connect 3 0 0 0;
#X connect 4 0 1 0;
#X connect 5 0 4 1;
#X connect 6 0 12 0;
#X connect 7 0 8 0;
#X connect 8 0 6 0;
#X connect 9 0 1 1;
#X connect 10 0 9 1;
#X connect 11 0 4 0;
#X connect 12 0 9 0;
#X connect 13 0 38 0;
#X connect 13 0 5 0;
#X connect 14 0 37 0;
#X connect 14 0 10 0;
#X connect 15 0 0 0;
#X connect 15 0 6 0;
#X connect 18 0 31 0;
#X connect 20 0 28 0;
#X connect 21 0 19 0;
#X connect 22 0 21 1;
#X connect 23 0 32 0;
#X connect 24 0 27 0;
#X connect 25 0 19 1;
#X connect 26 0 25 1;
#X connect 27 0 23 0;
#X connect 28 0 18 0;
#X connect 29 0 22 0;
#X connect 30 0 26 0;
#X connect 31 0 21 0;
#X connect 32 0 25 0;
#X connect 33 0 39 0;
#X connect 33 0 43 0;
#X connect 33 1 40 0;
#X connect 33 1 44 0;
#X connect 33 2 41 0;
#X connect 33 2 45 0;
#X connect 33 3 42 0;
#X connect 33 3 46 0;
#X connect 34 0 33 0;
#X connect 35 0 18 0;
#X connect 35 0 23 0;
#X connect 35 0 50 0;
#X connect 37 0 12 2;
#X connect 38 0 11 2;
#X connect 39 0 31 2;
#X connect 40 0 31 2;
#X connect 41 0 31 2;
#X connect 42 0 31 2;
#X connect 43 0 32 2;
#X connect 44 0 32 2;
#X connect 45 0 32 2;
#X connect 46 0 32 2;
#X connect 49 0 54 0;
#X connect 49 0 56 0;
#X connect 50 0 49 0;
#X connect 50 1 51 0;
#X connect 51 0 53 0;
#X connect 53 0 52 0;
#X connect 53 0 9 1;
#X connect 53 0 4 1;
#X connect 54 0 53 0;
#X restore 388 646 pd podium2;
#X text 630 396 trigger per bar;
#X obj 587 426 f;
#X obj 621 425 + 1;
#X obj 586 456 mod 4;
#X text 631 458 4 bass notes;
#X obj 587 406 sel 0;
#N canvas 293 144 1092 849 podium3 0;
#X msg 104 341 oneshot;
#X obj 184 644 dac~;
#X obj 105 287 r osc_from_podiums;
#X obj 104 315 route 1;
#X obj 129 427 gain~;
#X msg 186 400 0;
#X msg 255 339 oneshot;
#X obj 256 285 r osc_from_podiums;
#X obj 255 313 route 1;
#X obj 280 425 gain~;
#X msg 337 398 0;
#X obj 128 403 elooper~;
#X obj 279 401 elooper~;
#X obj 172 339 r go;
#X obj 321 337 r go;
#X obj 123 180 inlet;
#X text 163 181 trigger in every 4 bars;
#X msg 656 414 oneshot;
#X obj 736 717 dac~;
#X obj 657 360 r osc_from_podiums;
#X obj 681 500 gain~;
#X msg 738 473 0;
#X msg 807 412 oneshot;
#X obj 808 358 r osc_from_podiums;
#X obj 832 498 gain~;
#X msg 889 471 0;
#X obj 807 386 route 2;
#X obj 656 388 route 2;
#X obj 724 412 r go;
#X obj 876 410 r go;
#X obj 680 476 elooper~;
#X obj 831 474 elooper~;
#X obj 738 284 sel 0 1 2 3;
#X obj 746 111 inlet;
#X obj 893 114 inlet;
#X text 931 108 trigger inlet;
#X text 787 112 select inlet;
#X msg 173 379 snareL;
#X msg 324 376 snareR;
#X obj 451 295 delay 3750;
#X obj 451 226 t b b;
#X msg 396 332 0;
#X floatatom 459 400 5 0 0 0 - - -, f 5;
#X obj 420 365 line;
#X msg 449 332 -99 5000;
#X text 464 255 2 bars;
#X msg 518 332 0;
#X msg 564 329 low_note1L;
#X msg 635 328 low_note2L;
#X msg 690 329 low_note3L;
#X msg 735 328 low_note4L;
#X msg 933 327 low_note3R;
#X msg 1005 327 low_note4R;
#X msg 872 330 low_note2R;
#X msg 809 330 low_note1R;
#X connect 0 0 11 0;
#X connect 2 0 3 0;
#X connect 3 0 0 0;
#X connect 4 0 1 0;
#X connect 5 0 4 1;
#X connect 6 0 12 0;
#X connect 7 0 8 0;
#X connect 8 0 6 0;
#X connect 9 0 1 1;
#X connect 10 0 9 1;
#X connect 11 0 4 0;
#X connect 12 0 9 0;
#X connect 13 0 37 0;
#X connect 13 0 5 0;
#X connect 14 0 38 0;
#X connect 14 0 10 0;
#X connect 15 0 0 0;
#X connect 15 0 6 0;
#X connect 17 0 30 0;
#X connect 19 0 27 0;
#X connect 20 0 18 0;
#X connect 21 0 20 1;
#X connect 22 0 31 0;
#X connect 23 0 26 0;
#X connect 24 0 18 1;
#X connect 25 0 24 1;
#X connect 26 0 22 0;
#X connect 27 0 17 0;
#X connect 28 0 21 0;
#X connect 29 0 25 0;
#X connect 30 0 20 0;
#X connect 31 0 24 0;
#X connect 32 0 47 0;
#X connect 32 0 54 0;
#X connect 32 1 48 0;
#X connect 32 1 53 0;
#X connect 32 2 49 0;
#X connect 32 2 51 0;
#X connect 32 3 50 0;
#X connect 32 3 52 0;
#X connect 33 0 32 0;
#X connect 34 0 17 0;
#X connect 34 0 22 0;
#X connect 34 0 40 0;
#X connect 37 0 11 2;
#X connect 38 0 12 2;
#X connect 39 0 44 0;
#X connect 39 0 46 0;
#X connect 40 0 39 0;
#X connect 40 1 41 0;
#X connect 41 0 43 0;
#X connect 43 0 42 0;
#X connect 43 0 9 1;
#X connect 43 0 4 1;
#X connect 44 0 43 0;
#X connect 47 0 30 2;
#X connect 48 0 30 2;
#X connect 49 0 30 2;
#X connect 50 0 30 2;
#X connect 51 0 31 2;
#X connect 52 0 31 2;
#X connect 53 0 31 2;
#X connect 54 0 31 2;
#X restore 496 647 pd podium3;
#N canvas 148 146 1430 868 podium4 0;
#X msg 104 341 oneshot;
#X obj 184 644 dac~;
#X obj 129 427 gain~;
#X msg 186 400 0;
#X msg 255 339 oneshot;
#X obj 280 425 gain~;
#X msg 337 398 0;
#X obj 128 403 elooper~;
#X obj 279 401 elooper~;
#X obj 172 339 r go;
#X obj 321 337 r go;
#X obj 123 180 inlet;
#X text 163 181 trigger in every 4 bars;
#X msg 623 446 oneshot;
#X obj 734 775 dac~;
#X obj 648 532 gain~;
#X msg 705 505 0;
#X obj 691 444 r go;
#X obj 647 508 elooper~;
#X obj 659 -34 inlet;
#X obj 832 4 inlet;
#X text 870 -2 trigger inlet;
#X text 726 2 select inlet;
#X obj 451 295 delay 3750;
#X obj 451 226 t b b;
#X msg 396 332 0;
#X floatatom 459 400 5 0 0 0 - - -, f 5;
#X obj 420 365 line;
#X msg 449 332 -99 5000;
#X text 464 255 2 bars;
#X msg 518 332 0;
#X msg 173 379 hat2L;
#X msg 324 376 hat2R;
#X msg 566 245 hi_note1L;
#X msg 597 276 hi_note2L;
#X obj 568 213 cyclone/gate 2;
#X obj 567 159 mod 2;
#X obj 568 185 + 1;
#X obj 600 133 + 1;
#X obj 661 25 cyclone/gate 4;
#X obj 660 -1 + 1;
#X obj 667 211 cyclone/gate 2;
#X obj 666 157 mod 2;
#X obj 667 183 + 1;
#X obj 699 131 + 1;
#X obj 764 214 cyclone/gate 2;
#X obj 762 162 mod 2;
#X obj 763 188 + 1;
#X obj 795 136 + 1;
#X obj 862 214 cyclone/gate 2;
#X obj 861 160 mod 2;
#X obj 862 186 + 1;
#X obj 894 134 + 1;
#X floatatom 608 18 5 0 0 0 - - -, f 5;
#X obj 560 76 t b b b;
#X obj 560 103 s noteTrigL;
#X obj 662 75 t b b b;
#X obj 662 102 s noteTrigL;
#X obj 761 82 t b b b;
#X obj 761 109 s noteTrigL;
#X obj 851 77 t b b b;
#X obj 851 104 s noteTrigL;
#X obj 620 408 r noteTrigL;
#X msg 640 244 hi_note3L;
#X msg 671 277 hi_note4L;
#X msg 713 245 hi_note5L;
#X msg 744 276 hi_note6L;
#X msg 786 245 hi_note7L;
#X msg 817 277 hi_note8L;
#X msg 1033 445 oneshot;
#X obj 1058 531 gain~;
#X msg 1115 504 0;
#X obj 1101 443 r go;
#X obj 1057 507 elooper~;
#X obj 978 212 cyclone/gate 2;
#X obj 977 158 mod 2;
#X obj 978 184 + 1;
#X obj 1010 132 + 1;
#X obj 1078 45 cyclone/gate 4;
#X obj 1077 210 cyclone/gate 2;
#X obj 1076 156 mod 2;
#X obj 1077 182 + 1;
#X obj 1109 130 + 1;
#X obj 1174 213 cyclone/gate 2;
#X obj 1172 161 mod 2;
#X obj 1173 187 + 1;
#X obj 1205 135 + 1;
#X obj 1272 213 cyclone/gate 2;
#X obj 1271 159 mod 2;
#X obj 1272 185 + 1;
#X obj 1304 133 + 1;
#X obj 970 75 t b b b;
#X obj 970 102 s noteTrigL;
#X obj 1072 74 t b b b;
#X obj 1072 101 s noteTrigL;
#X obj 1171 81 t b b b;
#X obj 1171 108 s noteTrigL;
#X obj 1261 76 t b b b;
#X obj 1261 103 s noteTrigL;
#X obj 1030 407 r noteTrigL;
#X msg 976 244 hi_note1R;
#X msg 1007 275 hi_note2R;
#X msg 1050 243 hi_note3R;
#X msg 1081 276 hi_note4R;
#X msg 1123 244 hi_note5R;
#X msg 1154 275 hi_note6R;
#X msg 1196 244 hi_note7R;
#X msg 1227 276 hi_note8R;
#X obj 566 134 f;
#X obj 665 132 f;
#X obj 761 137 f;
#X obj 860 135 f;
#X obj 976 133 f;
#X obj 1075 131 f;
#X obj 1171 136 f;
#X obj 1270 134 f;
#X connect 0 0 7 0;
#X connect 2 0 1 0;
#X connect 3 0 2 1;
#X connect 4 0 8 0;
#X connect 5 0 1 1;
#X connect 6 0 5 1;
#X connect 7 0 2 0;
#X connect 8 0 5 0;
#X connect 9 0 31 0;
#X connect 9 0 3 0;
#X connect 10 0 32 0;
#X connect 10 0 6 0;
#X connect 11 0 0 0;
#X connect 11 0 4 0;
#X connect 13 0 18 0;
#X connect 15 0 14 0;
#X connect 16 0 15 1;
#X connect 17 0 16 0;
#X connect 18 0 15 0;
#X connect 19 0 40 0;
#X connect 20 0 39 1;
#X connect 20 0 78 1;
#X connect 20 0 24 0;
#X connect 23 0 28 0;
#X connect 23 0 30 0;
#X connect 24 0 23 0;
#X connect 24 1 25 0;
#X connect 25 0 27 0;
#X connect 27 0 26 0;
#X connect 27 0 5 1;
#X connect 27 0 2 1;
#X connect 28 0 27 0;
#X connect 31 0 7 2;
#X connect 32 0 8 2;
#X connect 33 0 18 2;
#X connect 34 0 18 2;
#X connect 35 0 33 0;
#X connect 35 1 34 0;
#X connect 36 0 37 0;
#X connect 37 0 35 0;
#X connect 38 0 108 1;
#X connect 39 0 54 0;
#X connect 39 1 56 0;
#X connect 39 2 58 0;
#X connect 39 3 60 0;
#X connect 40 0 39 0;
#X connect 40 0 53 0;
#X connect 40 0 78 0;
#X connect 41 0 63 0;
#X connect 41 1 64 0;
#X connect 42 0 43 0;
#X connect 43 0 41 0;
#X connect 44 0 109 1;
#X connect 45 0 65 0;
#X connect 45 1 66 0;
#X connect 46 0 47 0;
#X connect 47 0 45 0;
#X connect 48 0 110 1;
#X connect 49 0 67 0;
#X connect 49 1 68 0;
#X connect 50 0 51 0;
#X connect 51 0 49 0;
#X connect 52 0 111 1;
#X connect 54 0 55 0;
#X connect 54 1 35 1;
#X connect 54 2 108 0;
#X connect 56 0 57 0;
#X connect 56 1 41 1;
#X connect 56 2 109 0;
#X connect 58 0 59 0;
#X connect 58 1 45 1;
#X connect 58 2 110 0;
#X connect 60 0 61 0;
#X connect 60 1 49 1;
#X connect 60 2 111 0;
#X connect 62 0 13 0;
#X connect 63 0 18 2;
#X connect 64 0 18 2;
#X connect 65 0 18 2;
#X connect 66 0 18 2;
#X connect 67 0 18 2;
#X connect 68 0 18 2;
#X connect 69 0 73 0;
#X connect 70 0 14 1;
#X connect 71 0 70 1;
#X connect 72 0 71 0;
#X connect 73 0 70 0;
#X connect 74 0 100 0;
#X connect 74 1 101 0;
#X connect 75 0 76 0;
#X connect 76 0 74 0;
#X connect 77 0 112 1;
#X connect 78 0 91 0;
#X connect 78 1 93 0;
#X connect 78 2 95 0;
#X connect 78 3 97 0;
#X connect 79 0 102 0;
#X connect 79 1 103 0;
#X connect 80 0 81 0;
#X connect 81 0 79 0;
#X connect 82 0 113 1;
#X connect 83 0 104 0;
#X connect 83 1 105 0;
#X connect 84 0 85 0;
#X connect 85 0 83 0;
#X connect 86 0 114 1;
#X connect 87 0 106 0;
#X connect 87 1 107 0;
#X connect 88 0 89 0;
#X connect 89 0 87 0;
#X connect 90 0 115 1;
#X connect 91 0 92 0;
#X connect 91 1 74 1;
#X connect 91 2 112 0;
#X connect 93 0 94 0;
#X connect 93 1 79 1;
#X connect 93 2 113 0;
#X connect 95 0 96 0;
#X connect 95 1 83 1;
#X connect 95 2 114 0;
#X connect 97 0 98 0;
#X connect 97 1 87 1;
#X connect 97 2 115 0;
#X connect 99 0 69 0;
#X connect 100 0 73 2;
#X connect 101 0 73 2;
#X connect 102 0 73 2;
#X connect 103 0 73 2;
#X connect 104 0 73 2;
#X connect 105 0 73 2;
#X connect 106 0 73 2;
#X connect 107 0 73 2;
#X connect 108 0 38 0;
#X connect 108 0 36 0;
#X connect 109 0 44 0;
#X connect 109 0 42 0;
#X connect 110 0 48 0;
#X connect 110 0 46 0;
#X connect 111 0 52 0;
#X connect 111 0 50 0;
#X connect 112 0 77 0;
#X connect 112 0 75 0;
#X connect 113 0 82 0;
#X connect 113 0 80 0;
#X connect 114 0 86 0;
#X connect 114 0 84 0;
#X connect 115 0 90 0;
#X connect 115 0 88 0;
#X restore 585 646 pd podium4;
#N canvas 492 122 1014 833 podium5 0;
#X msg 104 341 oneshot;
#X obj 184 644 dac~;
#X obj 105 287 r osc_from_podiums;
#X obj 104 315 route 1;
#X obj 129 427 gain~;
#X msg 186 400 0;
#X msg 255 339 oneshot;
#X obj 256 285 r osc_from_podiums;
#X obj 255 313 route 1;
#X obj 280 425 gain~;
#X msg 337 398 0;
#X obj 128 403 elooper~;
#X obj 279 401 elooper~;
#X obj 172 339 r go;
#X obj 321 337 r go;
#X obj 123 180 inlet;
#X text 163 181 trigger in every 4 bars;
#X text 419 191 autogain for rhythm;
#X msg 656 414 oneshot;
#X obj 736 717 dac~;
#X obj 657 360 r osc_from_podiums;
#X obj 681 500 gain~;
#X msg 738 473 0;
#X msg 807 412 oneshot;
#X obj 808 358 r osc_from_podiums;
#X obj 832 498 gain~;
#X msg 889 471 0;
#X obj 807 386 route 2;
#X obj 656 388 route 2;
#X obj 724 412 r go;
#X obj 876 410 r go;
#X obj 680 476 elooper~;
#X obj 831 474 elooper~;
#X obj 703 173 inlet;
#X text 741 167 trigger inlet;
#X obj 451 295 delay 3750;
#X obj 451 226 t b b;
#X msg 396 332 0;
#X floatatom 459 400 5 0 0 0 - - -, f 5;
#X obj 420 365 line;
#X msg 449 332 -99 5000;
#X text 464 255 2 bars;
#X msg 518 332 0;
#X obj 627 293 loadbang;
#X msg 619 328 melodyL;
#X msg 809 330 melodyR;
#X msg 173 379 cymbalL;
#X msg 324 376 cymbalR;
#X connect 0 0 11 0;
#X connect 2 0 3 0;
#X connect 3 0 0 0;
#X connect 4 0 1 0;
#X connect 5 0 4 1;
#X connect 6 0 12 0;
#X connect 7 0 8 0;
#X connect 8 0 6 0;
#X connect 9 0 1 1;
#X connect 10 0 9 1;
#X connect 11 0 4 0;
#X connect 12 0 9 0;
#X connect 13 0 46 0;
#X connect 13 0 5 0;
#X connect 14 0 47 0;
#X connect 14 0 10 0;
#X connect 15 0 0 0;
#X connect 15 0 6 0;
#X connect 18 0 31 0;
#X connect 20 0 28 0;
#X connect 21 0 19 0;
#X connect 22 0 21 1;
#X connect 23 0 32 0;
#X connect 24 0 27 0;
#X connect 25 0 19 1;
#X connect 26 0 25 1;
#X connect 27 0 23 0;
#X connect 28 0 18 0;
#X connect 29 0 22 0;
#X connect 30 0 26 0;
#X connect 31 0 21 0;
#X connect 32 0 25 0;
#X connect 33 0 18 0;
#X connect 33 0 23 0;
#X connect 33 0 36 0;
#X connect 35 0 40 0;
#X connect 35 0 42 0;
#X connect 36 0 35 0;
#X connect 36 1 37 0;
#X connect 37 0 39 0;
#X connect 39 0 38 0;
#X connect 39 0 9 1;
#X connect 39 0 4 1;
#X connect 40 0 39 0;
#X connect 43 0 44 0;
#X connect 43 0 45 0;
#X connect 44 0 31 2;
#X connect 45 0 32 2;
#X connect 46 0 11 2;
#X connect 47 0 12 2;
#X restore 682 646 pd podium5;
#N canvas 492 122 1014 833 podium6 1;
#X msg 104 341 oneshot;
#X obj 184 644 dac~;
#X obj 105 287 r osc_from_podiums;
#X obj 104 315 route 1;
#X obj 129 427 gain~;
#X msg 186 400 0;
#X msg 255 339 oneshot;
#X obj 256 285 r osc_from_podiums;
#X obj 255 313 route 1;
#X obj 280 425 gain~;
#X msg 337 398 0;
#X obj 128 403 elooper~;
#X obj 279 401 elooper~;
#X obj 172 339 r go;
#X obj 321 337 r go;
#X obj 123 180 inlet;
#X text 163 181 trigger in every 4 bars;
#X text 419 191 autogain for rhythm;
#X msg 657 434 oneshot;
#X obj 736 717 dac~;
#X obj 658 380 r osc_from_podiums;
#X obj 681 500 gain~;
#X msg 738 473 0;
#X msg 807 412 oneshot;
#X obj 808 358 r osc_from_podiums;
#X obj 832 498 gain~;
#X msg 889 471 0;
#X obj 807 386 route 2;
#X obj 657 408 route 2;
#X obj 725 432 r go;
#X obj 876 410 r go;
#X obj 680 476 elooper~;
#X obj 831 474 elooper~;
#X obj 702 155 inlet;
#X text 740 149 trigger inlet;
#X obj 451 295 delay 3750;
#X obj 451 226 t b b;
#X msg 396 332 0;
#X floatatom 459 400 5 0 0 0 - - -, f 5;
#X obj 420 365 line;
#X msg 449 332 -99 5000;
#X text 464 255 2 bars;
#X msg 518 332 0;
#X obj 614 256 loadbang;
#X msg 173 379 percL;
#X msg 324 376 percR;
#X msg 602 337 hit1L;
#X msg 809 330 hit1R;
#X obj 741 212 + 1;
#X obj 712 273 sel 0 1;
#X obj 693 298 t b b;
#X msg 680 333 hit2L;
#X obj 805 297 t b b;
#X msg 855 330 hit2R;
#X floatatom 770 261 5 0 0 0 - - -, f 5;
#X obj 596 383 bng 15 250 50 0 empty empty empty 17 7 0 10 -262144
-1 -1;
#X obj 709 212 f;
#X obj 710 239 mod 2;
#X floatatom 777 234 5 0 0 0 - - -, f 5;
#X obj 706 187 bng 15 250 50 0 empty empty empty 17 7 0 10 -262144
-1 -1;
#X connect 0 0 11 0;
#X connect 2 0 3 0;
#X connect 3 0 0 0;
#X connect 4 0 1 0;
#X connect 5 0 4 1;
#X connect 6 0 12 0;
#X connect 7 0 8 0;
#X connect 8 0 6 0;
#X connect 9 0 1 1;
#X connect 10 0 9 1;
#X connect 11 0 4 0;
#X connect 12 0 9 0;
#X connect 13 0 44 0;
#X connect 13 0 5 0;
#X connect 14 0 45 0;
#X connect 14 0 10 0;
#X connect 15 0 0 0;
#X connect 15 0 6 0;
#X connect 18 0 31 0;
#X connect 20 0 28 0;
#X connect 21 0 19 0;
#X connect 22 0 21 1;
#X connect 23 0 32 0;
#X connect 24 0 27 0;
#X connect 25 0 19 1;
#X connect 26 0 25 1;
#X connect 27 0 23 0;
#X connect 28 0 18 0;
#X connect 29 0 22 0;
#X connect 30 0 26 0;
#X connect 31 0 21 0;
#X connect 32 0 25 0;
#X connect 33 0 36 0;
#X connect 33 0 59 0;
#X connect 35 0 40 0;
#X connect 35 0 42 0;
#X connect 36 0 35 0;
#X connect 36 1 37 0;
#X connect 37 0 39 0;
#X connect 39 0 38 0;
#X connect 39 0 9 1;
#X connect 39 0 4 1;
#X connect 40 0 39 0;
#X connect 43 0 46 0;
#X connect 43 0 47 0;
#X connect 44 0 11 2;
#X connect 45 0 12 2;
#X connect 46 0 31 2;
#X connect 46 0 55 0;
#X connect 47 0 32 2;
#X connect 48 0 56 1;
#X connect 49 0 50 0;
#X connect 49 1 52 0;
#X connect 50 0 18 0;
#X connect 50 0 23 0;
#X connect 50 1 46 0;
#X connect 50 1 47 0;
#X connect 51 0 31 2;
#X connect 52 0 18 0;
#X connect 52 0 23 0;
#X connect 52 1 51 0;
#X connect 52 1 53 0;
#X connect 53 0 32 2;
#X connect 56 0 48 0;
#X connect 56 0 57 0;
#X connect 56 0 58 0;
#X connect 57 0 49 0;
#X connect 57 0 54 0;
#X connect 59 0 56 0;
#X restore 781 648 pd podium6;
#X connect 0 0 2 0;
#X connect 1 0 0 0;
#X connect 2 0 21 0;
#X connect 3 0 1 0;
#X connect 4 0 5 0;
#X connect 6 0 39 0;
#X connect 7 0 11 0;
#X connect 8 0 16 0;
#X connect 10 0 17 0;
#X connect 10 0 40 0;
#X connect 11 0 12 0;
#X connect 12 0 13 0;
#X connect 13 0 9 0;
#X connect 14 0 15 0;
#X connect 15 0 5 0;
#X connect 16 0 7 0;
#X connect 22 0 23 0;
#X connect 22 0 34 0;
#X connect 23 0 22 1;
#X connect 24 0 22 0;
#X connect 25 0 29 0;
#X connect 26 0 69 0;
#X connect 27 0 26 0;
#X connect 27 0 71 0;
#X connect 27 0 78 0;
#X connect 27 0 79 0;
#X connect 29 0 24 0;
#X connect 30 0 31 0;
#X connect 31 0 33 0;
#X connect 34 0 27 0;
#X connect 34 0 70 0;
#X connect 34 0 36 0;
#X connect 36 0 77 0;
#X connect 37 0 38 0;
#X connect 37 0 53 0;
#X connect 39 0 5 0;
#X connect 40 0 14 0;
#X connect 41 0 40 0;
#X connect 43 0 40 0;
#X connect 45 0 42 0;
#X connect 45 0 69 2;
#X connect 46 0 42 0;
#X connect 46 0 71 2;
#X connect 47 0 42 0;
#X connect 47 0 78 2;
#X connect 48 0 42 0;
#X connect 48 0 79 2;
#X connect 49 0 42 0;
#X connect 49 0 80 1;
#X connect 50 0 42 0;
#X connect 50 0 81 1;
#X connect 53 0 45 0;
#X connect 53 1 46 0;
#X connect 53 2 47 0;
#X connect 53 3 48 0;
#X connect 53 4 49 0;
#X connect 53 5 50 0;
#X connect 55 0 54 0;
#X connect 56 0 63 0;
#X connect 57 0 58 0;
#X connect 58 0 56 0;
#X connect 58 0 60 0;
#X connect 58 1 56 0;
#X connect 58 1 60 0;
#X connect 58 2 56 0;
#X connect 58 2 60 0;
#X connect 58 3 56 0;
#X connect 58 3 60 0;
#X connect 58 4 56 0;
#X connect 58 4 60 0;
#X connect 58 5 56 0;
#X connect 58 5 60 0;
#X connect 59 0 56 1;
#X connect 60 0 61 0;
#X connect 61 0 56 1;
#X connect 62 0 61 0;
#X connect 63 0 55 0;
#X connect 63 1 59 0;
#X connect 64 0 67 0;
#X connect 65 0 22 1;
#X connect 66 0 25 0;
#X connect 67 0 66 0;
#X connect 67 1 65 0;
#X connect 67 2 68 0;
#X connect 68 0 25 0;
#X connect 73 0 74 0;
#X connect 73 0 75 0;
#X connect 74 0 73 1;
#X connect 75 0 71 1;
#X connect 75 0 69 1;
#X connect 75 0 78 1;
#X connect 75 0 79 1;
#X connect 75 0 80 0;
#X connect 75 0 81 0;
#X connect 77 0 73 0;
