#N canvas 336 48 1583 958 10;
#X obj 863 61 audio_tables_loader;
#X obj 863 36 bng 15 250 50 0 empty empty empty 17 7 0 10 -262144 -1
-1;
#X obj 863 90 bng 15 250 50 0 empty empty empty 17 7 0 10 -262144 -1
-1;
#X obj 863 8 loadbang;
#X msg 686 154 disconnect;
#X obj 466 180 netsend -u -b;
#X obj 601 85 loadbang;
#X obj 16 60 netreceive -u -b;
#X obj 16 6 loadbang;
#X obj 16 155 s osc_from_podiums;
#X obj 443 32 r osc_from_podiums;
#X obj 16 83 oscparse;
#X obj 16 107 list trim;
#X obj 16 131 route trigger;
#X obj 466 126 list prepend send;
#X obj 466 151 list trim;
#X msg 16 33 listen 13000;
#X text 665 88 Animation Machine IP;
#X text 594 23 click to send OSC to animation machine;
#X text 596 39 change to emulate different podiums;
#X obj 863 124 s go;
#X obj 147 318 f;
#X obj 187 321 + 1;
#X obj 148 290 bng 15 250 50 0 empty empty empty 17 7 0 10 -262144
-1 -1;
#X obj 150 216 tgl 15 0 empty empty empty 17 7 0 10 -262144 -1 -1 1
1;
#X obj 67 518 bng 15 250 50 0 empty empty empty 17 7 0 10 -262144 -1
-1;
#X obj 117 394 sel 0;
#X text 230 253 128 bpm;
#X obj 151 244 metro 468.75;
#X msg 29 210 60000;
#X obj 29 250 / 128;
#X text 81 251 bpm calc;
#X obj 29 278 print;
#X obj 146 349 mod 16;
#X text 198 353 4 bar loop;
#X obj 511 370 mod 4;
#X obj 673 204 key;
#X floatatom 673 248 5 0 0 0 - - -, f 5;
#X obj 468 102 oscformat podium;
#X msg 566 37 1;
#X obj 529 341 send keyOSC;
#X obj 524 72 r keyOSC;
#X text 648 278 qwerty;
#X msg 475 299 0;
#X msg 506 299 1;
#X msg 538 300 2;
#X msg 573 300 3;
#X msg 606 300 4;
#X msg 641 300 5;
#X text 981 359 after no touches \, clock stops after some amount of
time;
#X text 984 387 new touch to any podium restarts the clock;
#X obj 486 266 sel 113 119 101 114 116 121;
#X obj 1103 310 send restart;
#X obj 1103 287 bng 15 250 50 0 empty empty empty 17 7 0 10 -262144
-1 -1;
#X obj 1103 222 spigot;
#X obj 1019 103 key;
#X obj 1019 140 sel 113 119 101 114 116 121;
#X msg 1204 235 0;
#X msg 1005 310 1;
#X obj 958 203 loadbang;
#X obj 1103 250 t b b;
#X obj 157 136 r restart;
#X msg 341 274 0;
#X msg 148 195 1;
#X obj 153 169 t b b b;
#X msg 193 198 0;
#N canvas 492 122 1014 833 podium1 0;
#X msg 104 341 oneshot;
#X obj 191 697 dac~;
#X obj 129 427 gain~;
#X msg 255 339 oneshot;
#X obj 280 425 gain~;
#X obj 128 403 elooper~;
#X obj 279 401 elooper~;
#X msg 173 379 hatL;
#X msg 324 376 hatR;
#X obj 172 339 r go;
#X obj 321 337 r go;
#X obj 123 180 inlet;
#X text 163 181 trigger in every 4 bars;
#X text 419 191 autogain for rhythm;
#X msg 656 414 oneshot;
#X obj 736 717 dac~;
#X obj 657 360 r osc_from_podiums;
#X obj 681 500 gain~;
#X msg 738 473 0;
#X msg 807 412 oneshot;
#X obj 808 358 r osc_from_podiums;
#X obj 832 498 gain~;
#X msg 889 471 0;
#X obj 807 386 route 2;
#X obj 656 388 route 2;
#X obj 724 412 r go;
#X obj 876 410 r go;
#X obj 680 476 elooper~;
#X obj 831 474 elooper~;
#X obj 738 284 sel 0 1 2 3;
#X msg 593 329 bass1L;
#X msg 809 330 bass1R;
#X msg 642 328 bass2L;
#X msg 690 329 bass3L;
#X msg 739 328 bass4L;
#X msg 858 329 bass2R;
#X msg 907 330 bass3R;
#X msg 956 329 bass4R;
#X obj 746 111 inlet;
#X obj 893 114 inlet;
#X text 787 112 clock inlet;
#X text 931 108 trigger inlet;
#X obj 451 295 delay 3750;
#X obj 451 226 t b b;
#X msg 396 332 0;
#X floatatom 459 400 5 0 0 0 - - -, f 5;
#X obj 420 365 line;
#X msg 449 332 -99 5000;
#X text 464 255 2 bars;
#X msg 518 332 0;
#X obj 178 227 bng 15 250 50 0 empty empty empty 17 7 0 10 -262144
-1 -1;
#X obj 129 639 *~ 1;
#X obj 280 638 *~ 1;
#X obj 343 613 r the_drop;
#X connect 0 0 5 0;
#X connect 2 0 51 0;
#X connect 3 0 6 0;
#X connect 4 0 52 0;
#X connect 5 0 2 0;
#X connect 6 0 4 0;
#X connect 7 0 5 2;
#X connect 8 0 6 2;
#X connect 9 0 7 0;
#X connect 10 0 8 0;
#X connect 11 0 0 0;
#X connect 11 0 3 0;
#X connect 11 0 50 0;
#X connect 14 0 27 0;
#X connect 16 0 24 0;
#X connect 17 0 15 0;
#X connect 18 0 17 1;
#X connect 19 0 28 0;
#X connect 20 0 23 0;
#X connect 21 0 15 1;
#X connect 22 0 21 1;
#X connect 23 0 19 0;
#X connect 24 0 14 0;
#X connect 25 0 18 0;
#X connect 26 0 22 0;
#X connect 27 0 17 0;
#X connect 28 0 21 0;
#X connect 29 0 30 0;
#X connect 29 0 31 0;
#X connect 29 1 32 0;
#X connect 29 1 35 0;
#X connect 29 2 33 0;
#X connect 29 2 36 0;
#X connect 29 3 34 0;
#X connect 29 3 37 0;
#X connect 30 0 27 2;
#X connect 31 0 28 2;
#X connect 32 0 27 2;
#X connect 33 0 27 2;
#X connect 34 0 27 2;
#X connect 35 0 28 2;
#X connect 36 0 28 2;
#X connect 37 0 28 2;
#X connect 38 0 29 0;
#X connect 39 0 14 0;
#X connect 39 0 19 0;
#X connect 39 0 43 0;
#X connect 42 0 47 0;
#X connect 42 0 49 0;
#X connect 43 0 42 0;
#X connect 43 1 44 0;
#X connect 44 0 46 0;
#X connect 46 0 45 0;
#X connect 46 0 4 1;
#X connect 46 0 2 1;
#X connect 47 0 46 0;
#X connect 51 0 1 0;
#X connect 52 0 1 1;
#X connect 53 0 52 1;
#X connect 53 0 51 1;
#X restore 264 645 pd podium1;
#X floatatom 171 385 5 0 0 0 - - -, f 5;
#X text 630 396 trigger per bar;
#X obj 586 426 f;
#X obj 620 425 + 1;
#X obj 586 456 mod 4;
#X text 631 458 4 bass notes;
#X obj 586 389 sel 0;
#N canvas 222 120 1430 868 podium4 0;
#X msg 104 341 oneshot;
#X obj 129 427 gain~;
#X msg 186 400 0;
#X msg 255 339 oneshot;
#X obj 280 425 gain~;
#X msg 337 398 0;
#X obj 128 403 elooper~;
#X obj 279 401 elooper~;
#X obj 172 339 r go;
#X obj 321 337 r go;
#X obj 123 180 inlet;
#X text 163 181 trigger in every 4 bars;
#X msg 623 446 oneshot;
#X obj 734 775 dac~;
#X obj 648 532 gain~;
#X obj 691 444 r go;
#X obj 647 508 elooper~;
#X obj 659 -34 inlet;
#X obj 832 4 inlet;
#X text 870 -2 trigger inlet;
#X text 726 2 select inlet;
#X obj 451 295 delay 3750;
#X obj 451 226 t b b;
#X msg 396 332 0;
#X floatatom 459 400 5 0 0 0 - - -, f 5;
#X obj 420 365 line;
#X msg 449 332 -99 5000;
#X text 464 255 2 bars;
#X msg 518 332 0;
#X msg 173 379 hat2L;
#X msg 324 376 hat2R;
#X msg 566 245 hi_note1L;
#X msg 597 276 hi_note2L;
#X obj 567 159 mod 2;
#X obj 568 185 + 1;
#X obj 600 133 + 1;
#X obj 660 -1 + 1;
#X obj 666 157 mod 2;
#X obj 667 183 + 1;
#X obj 699 131 + 1;
#X obj 762 162 mod 2;
#X obj 763 188 + 1;
#X obj 795 136 + 1;
#X obj 861 160 mod 2;
#X obj 862 186 + 1;
#X obj 894 134 + 1;
#X floatatom 608 18 5 0 0 0 - - -, f 5;
#X obj 560 76 t b b b;
#X obj 560 103 s noteTrigL;
#X obj 662 75 t b b b;
#X obj 662 102 s noteTrigL;
#X obj 761 82 t b b b;
#X obj 761 109 s noteTrigL;
#X obj 851 77 t b b b;
#X obj 851 104 s noteTrigL;
#X obj 620 408 r noteTrigL;
#X msg 640 244 hi_note3L;
#X msg 671 277 hi_note4L;
#X msg 713 245 hi_note5L;
#X msg 744 276 hi_note6L;
#X msg 786 245 hi_note7L;
#X msg 817 277 hi_note8L;
#X msg 1033 445 oneshot;
#X obj 1058 531 gain~;
#X obj 1101 443 r go;
#X obj 1057 507 elooper~;
#X obj 977 158 mod 2;
#X obj 978 184 + 1;
#X obj 1010 132 + 1;
#X obj 1078 45 cyclone/gate 4;
#X obj 1076 156 mod 2;
#X obj 1077 182 + 1;
#X obj 1109 130 + 1;
#X obj 1172 161 mod 2;
#X obj 1173 187 + 1;
#X obj 1205 135 + 1;
#X obj 1271 159 mod 2;
#X obj 1272 185 + 1;
#X obj 1304 133 + 1;
#X obj 970 75 t b b b;
#X obj 970 102 s noteTrigL;
#X obj 1072 74 t b b b;
#X obj 1072 101 s noteTrigL;
#X obj 1171 81 t b b b;
#X obj 1171 108 s noteTrigL;
#X obj 1261 76 t b b b;
#X obj 1261 103 s noteTrigL;
#X obj 1030 407 r noteTrigL;
#X msg 976 244 hi_note1R;
#X msg 1007 275 hi_note2R;
#X msg 1050 243 hi_note3R;
#X msg 1081 276 hi_note4R;
#X msg 1123 244 hi_note5R;
#X msg 1154 275 hi_note6R;
#X msg 1196 244 hi_note7R;
#X msg 1227 276 hi_note8R;
#X obj 566 134 f;
#X obj 665 132 f;
#X obj 761 137 f;
#X obj 860 135 f;
#X obj 976 133 f;
#X obj 1075 131 f;
#X obj 1171 136 f;
#X obj 1270 134 f;
#X obj 661 25 cyclone/gate 4;
#X obj 568 213 cyclone/gate 2;
#X obj 667 211 cyclone/gate 2;
#X obj 764 214 cyclone/gate 2;
#X obj 862 214 cyclone/gate 2;
#X obj 978 212 cyclone/gate 2;
#X obj 1077 210 cyclone/gate 2;
#X obj 1174 213 cyclone/gate 2;
#X obj 1272 213 cyclone/gate 2;
#X obj 191 697 dac~;
#X obj 129 639 *~ 1;
#X obj 280 638 *~ 1;
#X obj 343 613 r the_drop;
#X msg 705 505 - 6;
#X msg 1115 504 - 6;
#X connect 0 0 6 0;
#X connect 1 0 114 0;
#X connect 2 0 1 1;
#X connect 3 0 7 0;
#X connect 4 0 115 0;
#X connect 5 0 4 1;
#X connect 6 0 1 0;
#X connect 7 0 4 0;
#X connect 8 0 29 0;
#X connect 8 0 2 0;
#X connect 9 0 30 0;
#X connect 9 0 5 0;
#X connect 10 0 0 0;
#X connect 10 0 3 0;
#X connect 12 0 16 0;
#X connect 14 0 13 0;
#X connect 15 0 117 0;
#X connect 16 0 14 0;
#X connect 17 0 36 0;
#X connect 18 0 69 1;
#X connect 18 0 22 0;
#X connect 18 0 104 1;
#X connect 21 0 26 0;
#X connect 21 0 28 0;
#X connect 22 0 21 0;
#X connect 22 1 23 0;
#X connect 23 0 25 0;
#X connect 25 0 24 0;
#X connect 25 0 4 1;
#X connect 25 0 1 1;
#X connect 26 0 25 0;
#X connect 29 0 6 2;
#X connect 30 0 7 2;
#X connect 31 0 16 2;
#X connect 32 0 16 2;
#X connect 33 0 34 0;
#X connect 34 0 105 0;
#X connect 35 0 96 1;
#X connect 36 0 46 0;
#X connect 36 0 69 0;
#X connect 36 0 104 0;
#X connect 37 0 38 0;
#X connect 38 0 106 0;
#X connect 39 0 97 1;
#X connect 40 0 41 0;
#X connect 41 0 107 0;
#X connect 42 0 98 1;
#X connect 43 0 44 0;
#X connect 44 0 108 0;
#X connect 45 0 99 1;
#X connect 47 0 48 0;
#X connect 47 1 105 1;
#X connect 47 2 96 0;
#X connect 49 0 50 0;
#X connect 49 1 106 1;
#X connect 49 2 97 0;
#X connect 51 0 52 0;
#X connect 51 1 107 1;
#X connect 51 2 98 0;
#X connect 53 0 54 0;
#X connect 53 1 108 1;
#X connect 53 2 99 0;
#X connect 55 0 12 0;
#X connect 56 0 16 2;
#X connect 57 0 16 2;
#X connect 58 0 16 2;
#X connect 59 0 16 2;
#X connect 60 0 16 2;
#X connect 61 0 16 2;
#X connect 62 0 65 0;
#X connect 63 0 13 1;
#X connect 64 0 118 0;
#X connect 65 0 63 0;
#X connect 66 0 67 0;
#X connect 67 0 109 0;
#X connect 68 0 100 1;
#X connect 69 0 79 0;
#X connect 69 1 81 0;
#X connect 69 2 83 0;
#X connect 69 3 85 0;
#X connect 70 0 71 0;
#X connect 71 0 110 0;
#X connect 72 0 101 1;
#X connect 73 0 74 0;
#X connect 74 0 111 0;
#X connect 75 0 102 1;
#X connect 76 0 77 0;
#X connect 77 0 112 0;
#X connect 78 0 103 1;
#X connect 79 0 80 0;
#X connect 79 1 109 1;
#X connect 79 2 100 0;
#X connect 81 0 82 0;
#X connect 81 1 110 1;
#X connect 81 2 101 0;
#X connect 83 0 84 0;
#X connect 83 1 111 1;
#X connect 83 2 102 0;
#X connect 85 0 86 0;
#X connect 85 1 112 1;
#X connect 85 2 103 0;
#X connect 87 0 62 0;
#X connect 88 0 65 2;
#X connect 89 0 65 2;
#X connect 90 0 65 2;
#X connect 91 0 65 2;
#X connect 92 0 65 2;
#X connect 93 0 65 2;
#X connect 94 0 65 2;
#X connect 95 0 65 2;
#X connect 96 0 35 0;
#X connect 96 0 33 0;
#X connect 97 0 39 0;
#X connect 97 0 37 0;
#X connect 98 0 42 0;
#X connect 98 0 40 0;
#X connect 99 0 45 0;
#X connect 99 0 43 0;
#X connect 100 0 68 0;
#X connect 100 0 66 0;
#X connect 101 0 72 0;
#X connect 101 0 70 0;
#X connect 102 0 75 0;
#X connect 102 0 73 0;
#X connect 103 0 78 0;
#X connect 103 0 76 0;
#X connect 104 0 47 0;
#X connect 104 1 49 0;
#X connect 104 2 51 0;
#X connect 104 3 53 0;
#X connect 105 0 31 0;
#X connect 105 1 32 0;
#X connect 106 0 56 0;
#X connect 106 1 57 0;
#X connect 107 0 58 0;
#X connect 107 1 59 0;
#X connect 108 0 60 0;
#X connect 108 1 61 0;
#X connect 109 0 88 0;
#X connect 109 1 89 0;
#X connect 110 0 90 0;
#X connect 110 1 91 0;
#X connect 111 0 92 0;
#X connect 111 1 93 0;
#X connect 112 0 94 0;
#X connect 112 1 95 0;
#X connect 114 0 113 0;
#X connect 115 0 113 1;
#X connect 116 0 115 1;
#X connect 116 0 114 1;
#X connect 117 0 14 1;
#X connect 118 0 63 1;
#X restore 585 646 pd podium4;
#N canvas 492 122 1014 833 podium5 0;
#X msg 104 341 oneshot;
#X obj 129 427 gain~;
#X msg 255 339 oneshot;
#X obj 280 425 gain~;
#X obj 128 403 elooper~;
#X obj 279 401 elooper~;
#X obj 172 339 r go;
#X obj 321 337 r go;
#X obj 123 180 inlet;
#X text 163 181 trigger in every 4 bars;
#X text 419 191 autogain for rhythm;
#X msg 656 414 oneshot;
#X obj 736 717 dac~;
#X obj 681 500 gain~;
#X msg 807 412 oneshot;
#X obj 832 498 gain~;
#X obj 724 412 r go;
#X obj 876 410 r go;
#X obj 680 476 elooper~;
#X obj 831 474 elooper~;
#X obj 703 173 inlet;
#X text 741 167 trigger inlet;
#X obj 451 295 delay 3750;
#X obj 451 226 t b b;
#X msg 396 332 0;
#X floatatom 459 400 5 0 0 0 - - -, f 5;
#X obj 420 365 line;
#X msg 449 332 -99 5000;
#X text 464 255 2 bars;
#X msg 518 332 0;
#X msg 619 328 melodyL;
#X msg 809 330 melodyR;
#X msg 173 379 cymbalL;
#X msg 324 376 cymbalR;
#X obj 627 293 r go;
#X obj 191 697 dac~;
#X obj 129 639 *~ 1;
#X obj 280 638 *~ 1;
#X obj 343 613 r the_drop;
#X msg 738 473 3;
#X msg 888 470 3;
#X connect 0 0 4 0;
#X connect 1 0 36 0;
#X connect 2 0 5 0;
#X connect 3 0 37 0;
#X connect 4 0 1 0;
#X connect 5 0 3 0;
#X connect 6 0 32 0;
#X connect 7 0 33 0;
#X connect 8 0 0 0;
#X connect 8 0 2 0;
#X connect 11 0 18 0;
#X connect 13 0 12 0;
#X connect 14 0 19 0;
#X connect 15 0 12 1;
#X connect 16 0 39 0;
#X connect 17 0 40 0;
#X connect 18 0 13 0;
#X connect 19 0 15 0;
#X connect 20 0 11 0;
#X connect 20 0 14 0;
#X connect 20 0 23 0;
#X connect 22 0 27 0;
#X connect 22 0 29 0;
#X connect 23 0 22 0;
#X connect 23 1 24 0;
#X connect 24 0 26 0;
#X connect 26 0 25 0;
#X connect 26 0 3 1;
#X connect 26 0 1 1;
#X connect 27 0 26 0;
#X connect 30 0 18 2;
#X connect 31 0 19 2;
#X connect 32 0 4 2;
#X connect 33 0 5 2;
#X connect 34 0 30 0;
#X connect 34 0 31 0;
#X connect 36 0 35 0;
#X connect 37 0 35 1;
#X connect 38 0 37 1;
#X connect 38 0 36 1;
#X connect 39 0 13 1;
#X connect 40 0 15 1;
#X restore 682 646 pd podium5;
#N canvas 492 122 1014 833 podium6 0;
#X msg 104 341 oneshot;
#X obj 129 427 gain~;
#X msg 186 400 0;
#X msg 255 339 oneshot;
#X obj 280 425 gain~;
#X msg 337 398 0;
#X obj 128 403 elooper~;
#X obj 279 401 elooper~;
#X obj 172 339 r go;
#X obj 321 337 r go;
#X obj 123 180 inlet;
#X text 163 181 trigger in every 4 bars;
#X text 419 191 autogain for rhythm;
#X msg 657 434 oneshot;
#X obj 736 717 dac~;
#X obj 681 500 gain~;
#X msg 807 412 oneshot;
#X obj 832 498 gain~;
#X obj 725 432 r go;
#X obj 876 410 r go;
#X obj 680 476 elooper~;
#X obj 831 474 elooper~;
#X obj 702 155 inlet;
#X text 740 149 trigger inlet;
#X obj 451 295 delay 3750;
#X obj 451 226 t b b;
#X msg 396 332 0;
#X floatatom 459 400 5 0 0 0 - - -, f 5;
#X obj 420 365 line;
#X msg 449 332 -99 5000;
#X text 464 255 2 bars;
#X msg 518 332 0;
#X obj 614 256 loadbang;
#X msg 173 379 percL;
#X msg 324 376 percR;
#X msg 602 337 hit1L;
#X msg 809 330 hit1R;
#X obj 741 212 + 1;
#X obj 712 273 sel 0 1;
#X obj 693 298 t b b;
#X msg 680 333 hit2L;
#X obj 805 297 t b b;
#X msg 855 330 hit2R;
#X floatatom 770 261 5 0 0 0 - - -, f 5;
#X obj 596 383 bng 15 250 50 0 empty empty empty 17 7 0 10 -262144
-1 -1;
#X obj 709 212 f;
#X obj 710 239 mod 2;
#X floatatom 777 234 5 0 0 0 - - -, f 5;
#X obj 706 187 bng 15 250 50 0 empty empty empty 17 7 0 10 -262144
-1 -1;
#X obj 191 697 dac~;
#X obj 129 639 *~ 1;
#X obj 280 638 *~ 1;
#X obj 343 613 r the_drop;
#X msg 738 473 -2;
#X msg 889 471 -2;
#X connect 0 0 6 0;
#X connect 1 0 50 0;
#X connect 2 0 1 1;
#X connect 3 0 7 0;
#X connect 4 0 51 0;
#X connect 5 0 4 1;
#X connect 6 0 1 0;
#X connect 7 0 4 0;
#X connect 8 0 33 0;
#X connect 8 0 2 0;
#X connect 9 0 34 0;
#X connect 9 0 5 0;
#X connect 10 0 0 0;
#X connect 10 0 3 0;
#X connect 13 0 20 0;
#X connect 15 0 14 0;
#X connect 16 0 21 0;
#X connect 17 0 14 1;
#X connect 18 0 53 0;
#X connect 19 0 54 0;
#X connect 20 0 15 0;
#X connect 21 0 17 0;
#X connect 22 0 25 0;
#X connect 22 0 48 0;
#X connect 24 0 29 0;
#X connect 24 0 31 0;
#X connect 25 0 24 0;
#X connect 25 1 26 0;
#X connect 26 0 28 0;
#X connect 28 0 27 0;
#X connect 28 0 4 1;
#X connect 28 0 1 1;
#X connect 29 0 28 0;
#X connect 32 0 35 0;
#X connect 32 0 36 0;
#X connect 33 0 6 2;
#X connect 34 0 7 2;
#X connect 35 0 20 2;
#X connect 35 0 44 0;
#X connect 36 0 21 2;
#X connect 37 0 45 1;
#X connect 38 0 39 0;
#X connect 38 1 41 0;
#X connect 39 0 13 0;
#X connect 39 0 16 0;
#X connect 39 1 35 0;
#X connect 39 1 36 0;
#X connect 40 0 20 2;
#X connect 41 0 13 0;
#X connect 41 0 16 0;
#X connect 41 1 40 0;
#X connect 41 1 42 0;
#X connect 42 0 21 2;
#X connect 45 0 37 0;
#X connect 45 0 46 0;
#X connect 45 0 47 0;
#X connect 46 0 38 0;
#X connect 46 0 43 0;
#X connect 48 0 45 0;
#X connect 50 0 49 0;
#X connect 51 0 49 1;
#X connect 52 0 51 1;
#X connect 52 0 50 1;
#X connect 53 0 15 1;
#X connect 54 0 17 1;
#X restore 781 648 pd podium6;
#X obj 442 221 sel 1 2 3 4 5 6;
#X floatatom 495 400 5 0 0 0 - - -, f 5;
#X floatatom 522 472 5 0 0 0 - - -, f 5;
#X obj 415 88 bng 15 250 50 0 empty empty empty 17 7 0 10 -262144 -1
-1;
#X obj 1005 252 delay 5000;
#X msg 601 117 connect 192.168.1.20 12000;
#X obj 471 72 - 1;
#X msg 130 33 \; pd dsp 1;
#N canvas 0 22 450 278 (subpatch) 0;
#X array activity 6 float 3;
#A 0 0 0 0 0 0 0;
#X coords 0 1 6 -1 200 140 1 0 0;
#X restore 1295 624 graph;
#X obj 1002 835 tabwrite activity;
#X obj 1019 793 unpack f f;
#X msg 1018 765 \$2 \$1;
#X obj 995 644 r osc_from_podiums;
#X obj 996 684 - 1;
#X obj 995 718 clone activity_indicator 6;
#X obj 1166 724 bng 15 250 50 0 empty empty empty 17 7 0 10 -262144
-1 -1;
#X obj 1166 751 array sum activity;
#X obj 1166 809 tgl 50 0 empty empty empty 17 7 0 10 -262144 -1 -1
0 1;
#X obj 1231 816 sel 1;
#X obj 1234 844 delay 5000;
#X text 1207 781 special behavior with this many podiums gets action
;
#X floatatom 768 487 5 0 0 0 - - -, f 5;
#X text 817 462 32 bar loop;
#X obj 864 496 sel 0;
#X obj 864 529 spigot;
#N canvas 55 589 976 688 snarerush 0;
#X msg 92 197 oneshot;
#X obj 172 500 dac~;
#X obj 117 283 gain~;
#X msg 243 195 oneshot;
#X obj 268 281 gain~;
#X obj 116 259 elooper~;
#X obj 267 257 elooper~;
#X obj 160 195 r go;
#X obj 309 193 r go;
#X obj 138 129 inlet;
#X msg 312 232 snareRushR;
#X msg 161 235 snareRushL;
#X msg 174 256 18;
#X msg 325 254 18;
#X connect 0 0 5 0;
#X connect 2 0 1 0;
#X connect 3 0 6 0;
#X connect 4 0 1 1;
#X connect 5 0 2 0;
#X connect 6 0 4 0;
#X connect 7 0 11 0;
#X connect 7 0 12 0;
#X connect 8 0 10 0;
#X connect 8 0 13 0;
#X connect 9 0 0 0;
#X connect 9 0 3 0;
#X connect 10 0 6 2;
#X connect 11 0 5 2;
#X connect 12 0 2 1;
#X connect 13 0 4 1;
#X restore 866 794 pd snarerush;
#X obj 866 588 bng 50 250 50 0 empty empty empty 17 7 0 10 -262144
-1 -1;
#X obj 767 460 mod 12;
#X obj 1166 782 >= 4;
#X text 928 607 the drop;
#X obj 884 768 s the_drop;
#X obj 884 740 line;
#X msg 929 697 1 500;
#X msg 877 670 0 2000;
#X obj 929 670 delay 7500;
#X msg 554 717 11;
#X msg 743 768 12;
#X text 526 691 theDrop[0] true;
#X text 720 742 theDrop[0] false;
#X obj 746 725 bng 15 250 50 0 empty empty empty 17 7 0 10 -262144
-1 -1;
#X text 599 745 theDrop[1] true;
#X text 719 830 theDrop[1] false;
#X obj 743 811 delay 15000;
#X obj 625 901 s osc_from_podiums;
#X msg 627 771 13;
#X msg 742 856 14;
#X obj 789 863 bng 15 250 50 0 empty empty empty 17 7 0 10 -262144
-1 -1;
#X obj 646 864 + 1;
#X text 181 426 offset for ppl who rush;
#X obj 116 425 delay 200;
#X obj 865 564 delay 200;
#X obj 128 75 metro 100;
#X obj 193 75 metro 200;
#X msg 128 100 1;
#X msg 197 100 2;
#X msg 264 101 3;
#X msg 333 101 4;
#X obj 260 76 metro 150;
#X obj 325 76 metro 250;
#X obj 263 149 metro 300;
#X obj 328 149 metro 350;
#X msg 267 174 5;
#X msg 336 174 6;
#X obj 248 33 tgl 15 0 empty empty empty 17 7 0 10 -262144 -1 -1 0
1;
#X text 272 32 burn in test;
#N canvas 293 144 1014 833 podium3 0;
#X msg 104 341 oneshot;
#X obj 129 427 gain~;
#X msg 255 339 oneshot;
#X obj 280 425 gain~;
#X obj 128 403 elooper~;
#X obj 279 401 elooper~;
#X obj 170 320 r go;
#X obj 321 332 r go;
#X obj 123 180 inlet;
#X text 163 181 trigger in every 4 bars;
#X text 419 191 autogain for rhythm;
#X msg 656 414 oneshot;
#X obj 736 717 dac~;
#X obj 681 500 gain~;
#X msg 807 412 oneshot;
#X obj 832 498 gain~;
#X obj 724 412 r go;
#X obj 876 410 r go;
#X obj 680 476 elooper~;
#X obj 831 474 elooper~;
#X obj 738 284 sel 0 1 2 3;
#X obj 746 111 inlet;
#X obj 893 114 inlet;
#X text 931 108 trigger inlet;
#X msg 324 376 kickR;
#X msg 173 379 kickL;
#X msg 576 329 chord1L;
#X msg 635 328 chord2L;
#X msg 690 329 chord3L;
#X msg 746 328 chord4L;
#X msg 809 330 chord1R;
#X msg 858 329 chord2R;
#X msg 907 330 chord3R;
#X msg 956 329 chord4R;
#X text 787 112 select inlet;
#X text 419 191 autogain for rhythm;
#X obj 451 295 delay 3750;
#X obj 451 226 t b b;
#X msg 396 332 0;
#X floatatom 459 400 5 0 0 0 - - -, f 5;
#X obj 420 365 line;
#X msg 449 332 -99 5000;
#X text 464 255 2 bars;
#X msg 518 332 0;
#X obj 191 697 dac~;
#X obj 129 639 *~ 1;
#X obj 280 638 *~ 1;
#X obj 343 613 r the_drop;
#X msg 738 473 -5;
#X msg 889 471 -5;
#X connect 0 0 4 0;
#X connect 1 0 45 0;
#X connect 2 0 5 0;
#X connect 3 0 46 0;
#X connect 4 0 1 0;
#X connect 5 0 3 0;
#X connect 6 0 25 0;
#X connect 7 0 24 0;
#X connect 8 0 0 0;
#X connect 8 0 2 0;
#X connect 11 0 18 0;
#X connect 13 0 12 0;
#X connect 14 0 19 0;
#X connect 15 0 12 1;
#X connect 16 0 48 0;
#X connect 17 0 49 0;
#X connect 18 0 13 0;
#X connect 19 0 15 0;
#X connect 20 0 26 0;
#X connect 20 0 30 0;
#X connect 20 1 27 0;
#X connect 20 1 31 0;
#X connect 20 2 28 0;
#X connect 20 2 32 0;
#X connect 20 3 29 0;
#X connect 20 3 33 0;
#X connect 21 0 20 0;
#X connect 22 0 11 0;
#X connect 22 0 14 0;
#X connect 22 0 37 0;
#X connect 24 0 5 2;
#X connect 25 0 4 2;
#X connect 26 0 18 2;
#X connect 27 0 18 2;
#X connect 28 0 18 2;
#X connect 29 0 18 2;
#X connect 30 0 19 2;
#X connect 31 0 19 2;
#X connect 32 0 19 2;
#X connect 33 0 19 2;
#X connect 36 0 41 0;
#X connect 36 0 43 0;
#X connect 37 0 36 0;
#X connect 37 1 38 0;
#X connect 38 0 40 0;
#X connect 40 0 39 0;
#X connect 40 0 3 1;
#X connect 40 0 1 1;
#X connect 41 0 40 0;
#X connect 45 0 44 0;
#X connect 46 0 44 1;
#X connect 47 0 46 1;
#X connect 47 0 45 1;
#X connect 48 0 13 1;
#X connect 49 0 15 1;
#X restore 490 638 pd podium3;
#N canvas 336 134 1092 849 podium2 0;
#X msg 104 341 oneshot;
#X obj 129 427 gain~;
#X msg 255 339 oneshot;
#X obj 280 425 gain~;
#X obj 128 403 elooper~;
#X obj 279 401 elooper~;
#X obj 172 339 r go;
#X obj 321 337 r go;
#X obj 123 180 inlet;
#X text 163 181 trigger in every 4 bars;
#X msg 656 414 oneshot;
#X obj 736 717 dac~;
#X obj 681 500 gain~;
#X msg 738 473 0;
#X msg 807 412 oneshot;
#X obj 832 498 gain~;
#X msg 889 471 0;
#X obj 724 412 r go;
#X obj 876 410 r go;
#X obj 680 476 elooper~;
#X obj 831 474 elooper~;
#X obj 738 284 sel 0 1 2 3;
#X obj 746 111 inlet;
#X obj 893 114 inlet;
#X text 931 108 trigger inlet;
#X text 787 112 select inlet;
#X msg 173 379 snareL;
#X msg 324 376 snareR;
#X obj 451 295 delay 3750;
#X obj 451 226 t b b;
#X msg 396 332 0;
#X floatatom 459 400 5 0 0 0 - - -, f 5;
#X obj 420 365 line;
#X msg 449 332 -99 5000;
#X text 464 255 2 bars;
#X msg 518 332 0;
#X msg 564 329 low_note1L;
#X msg 635 328 low_note2L;
#X msg 690 329 low_note3L;
#X msg 735 328 low_note4L;
#X msg 933 327 low_note3R;
#X msg 1005 327 low_note4R;
#X msg 872 330 low_note2R;
#X msg 809 330 low_note1R;
#X obj 191 697 dac~;
#X obj 129 639 *~ 1;
#X obj 280 638 *~ 1;
#X obj 343 613 r the_drop;
#X connect 0 0 4 0;
#X connect 1 0 45 0;
#X connect 2 0 5 0;
#X connect 3 0 46 0;
#X connect 4 0 1 0;
#X connect 5 0 3 0;
#X connect 6 0 26 0;
#X connect 7 0 27 0;
#X connect 8 0 0 0;
#X connect 8 0 2 0;
#X connect 10 0 19 0;
#X connect 12 0 11 0;
#X connect 13 0 12 1;
#X connect 14 0 20 0;
#X connect 15 0 11 1;
#X connect 16 0 15 1;
#X connect 17 0 13 0;
#X connect 18 0 16 0;
#X connect 19 0 12 0;
#X connect 20 0 15 0;
#X connect 21 0 36 0;
#X connect 21 0 43 0;
#X connect 21 1 37 0;
#X connect 21 1 42 0;
#X connect 21 2 38 0;
#X connect 21 2 40 0;
#X connect 21 3 39 0;
#X connect 21 3 41 0;
#X connect 22 0 21 0;
#X connect 23 0 10 0;
#X connect 23 0 14 0;
#X connect 23 0 29 0;
#X connect 26 0 4 2;
#X connect 27 0 5 2;
#X connect 28 0 33 0;
#X connect 28 0 35 0;
#X connect 29 0 28 0;
#X connect 29 1 30 0;
#X connect 30 0 32 0;
#X connect 32 0 31 0;
#X connect 32 0 3 1;
#X connect 32 0 1 1;
#X connect 33 0 32 0;
#X connect 36 0 19 2;
#X connect 37 0 19 2;
#X connect 38 0 19 2;
#X connect 39 0 19 2;
#X connect 40 0 20 2;
#X connect 41 0 20 2;
#X connect 42 0 20 2;
#X connect 43 0 20 2;
#X connect 45 0 44 0;
#X connect 46 0 44 1;
#X connect 47 0 46 1;
#X connect 47 0 45 1;
#X restore 386 638 pd podium2;
#X connect 0 0 2 0;
#X connect 1 0 0 0;
#X connect 2 0 20 0;
#X connect 3 0 1 0;
#X connect 4 0 5 0;
#X connect 6 0 82 0;
#X connect 7 0 11 0;
#X connect 8 0 16 0;
#X connect 8 0 84 0;
#X connect 10 0 77 0;
#X connect 10 0 80 0;
#X connect 10 0 83 0;
#X connect 11 0 12 0;
#X connect 12 0 13 0;
#X connect 13 0 9 0;
#X connect 14 0 15 0;
#X connect 15 0 5 0;
#X connect 16 0 7 0;
#X connect 21 0 22 0;
#X connect 21 0 33 0;
#X connect 22 0 21 1;
#X connect 23 0 21 0;
#X connect 24 0 28 0;
#X connect 25 0 66 0;
#X connect 26 0 126 0;
#X connect 28 0 23 0;
#X connect 29 0 30 0;
#X connect 30 0 32 0;
#X connect 33 0 26 0;
#X connect 33 0 67 0;
#X connect 33 0 35 0;
#X connect 35 0 73 0;
#X connect 35 0 78 0;
#X connect 36 0 37 0;
#X connect 36 0 51 0;
#X connect 38 0 14 0;
#X connect 39 0 38 0;
#X connect 43 0 40 0;
#X connect 43 0 66 2;
#X connect 44 0 40 0;
#X connect 44 0 143 2;
#X connect 45 0 40 0;
#X connect 45 0 142 2;
#X connect 46 0 40 0;
#X connect 46 0 74 2;
#X connect 47 0 40 0;
#X connect 47 0 75 1;
#X connect 48 0 40 0;
#X connect 48 0 76 1;
#X connect 51 0 43 0;
#X connect 51 1 44 0;
#X connect 51 2 45 0;
#X connect 51 3 46 0;
#X connect 51 4 47 0;
#X connect 51 5 48 0;
#X connect 53 0 52 0;
#X connect 54 0 60 0;
#X connect 55 0 56 0;
#X connect 56 0 54 0;
#X connect 56 0 81 0;
#X connect 56 1 54 0;
#X connect 56 1 81 0;
#X connect 56 2 54 0;
#X connect 56 2 81 0;
#X connect 56 3 54 0;
#X connect 56 3 81 0;
#X connect 56 4 54 0;
#X connect 56 4 81 0;
#X connect 56 5 54 0;
#X connect 56 5 81 0;
#X connect 57 0 54 1;
#X connect 58 0 54 1;
#X connect 59 0 58 0;
#X connect 60 0 53 0;
#X connect 60 1 57 0;
#X connect 61 0 64 0;
#X connect 62 0 21 1;
#X connect 62 0 69 1;
#X connect 63 0 24 0;
#X connect 64 0 63 0;
#X connect 64 1 62 0;
#X connect 64 2 65 0;
#X connect 65 0 24 0;
#X connect 69 0 70 0;
#X connect 69 0 71 0;
#X connect 69 0 104 0;
#X connect 70 0 69 1;
#X connect 71 0 142 1;
#X connect 71 0 66 1;
#X connect 71 0 143 1;
#X connect 71 0 74 1;
#X connect 71 0 79 0;
#X connect 73 0 69 0;
#X connect 77 0 43 0;
#X connect 77 1 44 0;
#X connect 77 2 45 0;
#X connect 77 3 46 0;
#X connect 77 4 47 0;
#X connect 77 5 48 0;
#X connect 80 0 54 0;
#X connect 80 0 81 0;
#X connect 81 0 58 0;
#X connect 82 0 5 0;
#X connect 83 0 38 0;
#X connect 87 0 86 0;
#X connect 87 1 86 1;
#X connect 88 0 87 0;
#X connect 89 0 90 0;
#X connect 89 0 92 0;
#X connect 90 0 91 0;
#X connect 91 0 88 0;
#X connect 92 0 93 0;
#X connect 93 0 105 0;
#X connect 94 0 101 1;
#X connect 95 0 96 0;
#X connect 96 0 92 0;
#X connect 100 0 101 0;
#X connect 101 0 127 0;
#X connect 103 0 102 0;
#X connect 103 0 110 0;
#X connect 103 0 111 0;
#X connect 103 0 112 0;
#X connect 103 0 119 0;
#X connect 104 0 98 0;
#X connect 104 0 100 0;
#X connect 105 0 94 0;
#X connect 105 0 95 0;
#X connect 108 0 107 0;
#X connect 109 0 108 0;
#X connect 110 0 108 0;
#X connect 111 0 109 0;
#X connect 111 0 116 0;
#X connect 112 0 124 0;
#X connect 113 0 124 0;
#X connect 116 0 113 0;
#X connect 116 0 121 0;
#X connect 119 0 122 0;
#X connect 119 0 123 0;
#X connect 121 0 124 0;
#X connect 122 0 124 0;
#X connect 124 0 120 0;
#X connect 126 0 25 0;
#X connect 126 0 142 0;
#X connect 126 0 143 0;
#X connect 126 0 74 0;
#X connect 126 0 75 0;
#X connect 126 0 76 0;
#X connect 127 0 103 0;
#X connect 128 0 130 0;
#X connect 129 0 131 0;
#X connect 130 0 9 0;
#X connect 131 0 9 0;
#X connect 132 0 9 0;
#X connect 133 0 9 0;
#X connect 134 0 132 0;
#X connect 135 0 133 0;
#X connect 136 0 138 0;
#X connect 137 0 139 0;
#X connect 138 0 9 0;
#X connect 139 0 9 0;
#X connect 140 0 128 0;
#X connect 140 0 129 0;
#X connect 140 0 134 0;
#X connect 140 0 135 0;
#X connect 140 0 136 0;
#X connect 140 0 137 0;
